<svg version="1.1" id="Layer_1" xmlns="http://www.w3.org/2000/svg" xmlns:xlink="http://www.w3.org/1999/xlink" x="0px" y="0px"
	 viewBox="0 0 1024 768" style="enable-background:new 0 0 1024 768;" xml:space="preserve">
<g class="logo">
	<line class="st0" x1="431" y1="404.5" x2="592.5" y2="404.5"/>
    <path class="st6" d="M429.5,386.3l1.3-2.3c2.7,1.5,5.2,2.2,7.7,2.2c1.7,0,3.2-0.3,4.5-0.9c1.4-0.6,2.4-1.4,3.2-2.5
        c0.8-1,1.2-2.2,1.2-3.4c0-1.2-0.4-2.3-1.1-3.2c-0.7-0.9-2-2-3.9-3.3c-1.7-1.1-2.8-1.9-3.3-2.3c-0.5-0.4-1-0.8-1.6-1.2
        c-1.1-1-1.7-2.2-1.7-3.5c0-2.5,1.6-4.8,4.8-7.1c0.9-0.6,1.9-1.2,3.1-1.7c1.2-0.5,2.3-0.9,3.4-1.2c1.1-0.3,2.2-0.4,3.1-0.4
        c1.4,0,2.5,0.3,3.4,0.8s1.2,1.3,1.2,2.2c0,1.2-0.5,2.4-1.5,3.8c-0.5,0.7-1.1,1.3-1.8,2s-1.4,1.2-2.3,1.7l-1.9-1.1
        c1.1-0.8,2.1-1.5,2.9-2.3c0.8-0.8,1.4-1.5,1.9-2.3c0.4-0.7,0.7-1.4,0.7-2c0-0.4-0.1-0.8-0.4-1.1c-0.2-0.3-0.6-0.5-1-0.7
        c-0.4-0.2-1-0.2-1.6-0.2c-1.2,0-2.5,0.2-3.9,0.7c-1.4,0.5-2.7,1.1-4,1.9c-2.8,1.7-4.1,3.7-4.1,5.8c0,0.6,0.2,1.1,0.5,1.7
        c0.3,0.5,0.9,1.1,1.7,1.8c0.8,0.7,2,1.5,3.6,2.5c1.3,0.8,2.2,1.5,2.7,1.9c0.6,0.5,1.1,1,1.5,1.5c0.9,1.1,1.3,2.4,1.3,3.7
        c0,1-0.3,2.1-0.8,3.2c-0.5,1.1-1.3,2.1-2.4,3.1c-2.4,2.2-5.7,3.4-9.9,3.4C433.3,387.5,431.1,387.1,429.5,386.3z"/>
    <path class="st6" d="M462.3,374l2.2-0.9l-2.2,8.6c-0.2,0.9-0.4,1.7-0.4,2.2c0,0.5,0.1,0.9,0.3,1.2s0.5,0.5,0.8,0.5
        c0.4,0,1.2-0.6,2.3-1.7l0.3,0.3l-0.3,0.3c-0.8,0.9-1.4,1.6-1.9,2c-0.4,0.4-0.8,0.6-1.2,0.6c-0.5,0-0.9-0.3-1.3-0.8
        c-0.4-0.5-0.6-1.1-0.6-1.8c0-0.5,0.2-1.6,0.6-3.4l0.2-0.9c-0.6,1.3-1.4,2.6-2.3,3.9c-1.6,2.1-3.2,3.1-4.7,3.1
        c-0.9,0-1.6-0.3-2.1-1s-0.8-1.5-0.8-2.6c0-1.5,0.4-3,1.3-4.6c0.8-1.6,1.8-2.9,3.1-4c1.3-1,2.5-1.5,3.6-1.5c1.2,0,2.2,0.5,2.8,1.4
        L462.3,374z M461.6,376.9l0.2-0.8c-0.2-0.6-0.5-1.1-0.9-1.4c-0.4-0.3-1-0.5-1.5-0.5c-0.7,0-1.4,0.3-2.2,0.9s-1.5,1.5-2.1,2.6
        c-0.5,0.9-0.9,1.9-1.2,3c-0.3,1-0.5,1.9-0.5,2.7c0,0.8,0.2,1.4,0.5,1.9s0.7,0.7,1.3,0.7c0.7,0,1.5-0.3,2.3-1
        c0.8-0.7,1.6-1.6,2.3-2.9c0.5-0.8,0.9-1.5,1.1-2.2C461,379,461.3,378,461.6,376.9z"/>
    <path class="st6" d="M468.3,385.1l-1.4-10.9l2.1-1v0.6c0,2.2,0.2,4.6,0.4,7.2c0.1,1.2,0.2,2.1,0.3,2.9c0.1,0.6,0.2,1.1,0.3,1.3
        s0.3,0.3,0.5,0.3c0.6,0,1.6-1.1,3.1-3.3c1.3-1.9,2-3.7,2-5.4c0-0.6-0.1-1.1-0.2-1.5c-0.1-0.4-0.4-0.8-0.8-1.1l1.8-1.6
        c0.5,0.7,0.8,1.6,0.8,2.6c0,2.1-1.2,4.8-3.7,8.2c-0.7,1-1.5,1.9-2.4,2.8c-0.4,0.4-0.8,0.6-0.9,0.8c-0.3,0.2-0.5,0.2-0.7,0.2
        c-0.4,0-0.7-0.1-0.8-0.4C468.5,386.4,468.4,385.9,468.3,385.1z"/>
    <path class="st6" d="M478.6,382.4c0-1.4,0.4-2.8,1.1-4.2c0.8-1.4,1.7-2.5,2.9-3.4c1.2-0.9,2.4-1.3,3.7-1.3c1.3,0,2.4,0.4,3.2,1.3
        c0.8,0.9,1.2,2,1.2,3.4c0,1.5-0.4,2.9-1.1,4.4c-0.8,1.4-1.7,2.5-2.9,3.4s-2.4,1.4-3.7,1.4c-1.3,0-2.4-0.5-3.2-1.4
        C479,385.1,478.6,383.9,478.6,382.4z M488.6,377.2c0-0.9-0.2-1.7-0.7-2.3c-0.5-0.6-1.1-0.9-1.8-0.9c-0.7,0-1.3,0.2-1.9,0.6
        c-0.6,0.4-1.2,1.1-1.7,1.9c-0.6,1-1,2-1.4,3.3c-0.4,1.2-0.6,2.3-0.6,3.3c0,1.1,0.2,2,0.7,2.7c0.4,0.6,1.1,0.9,1.9,0.9
        c1.4,0,2.6-0.9,3.6-2.8c0.5-1,1-2,1.3-3.3S488.6,378.3,488.6,377.2z"/>
    <path class="st6" d="M495.1,374.1l2.3-1l-2.1,7.7c-0.3,1.2-0.5,2.3-0.5,3c0,0.5,0.1,0.9,0.3,1.2s0.4,0.5,0.7,0.5
        c0.5,0,1.3-0.6,2.3-1.7l0.4,0.3l-0.2,0.3c-0.9,1-1.5,1.8-2,2.1c-0.4,0.4-0.8,0.6-1.2,0.6c-0.5,0-0.9-0.3-1.2-0.8
        c-0.3-0.5-0.5-1.1-0.5-1.8c0-0.5,0.1-1.2,0.3-2.2L495.1,374.1z M498.1,364c0.4,0,0.7,0.1,1,0.4s0.4,0.6,0.4,1c0,0.4-0.1,0.7-0.4,1
        s-0.6,0.4-1,0.4c-0.4,0-0.7-0.1-1-0.4s-0.4-0.6-0.4-1c0-0.4,0.1-0.7,0.4-1S497.7,364,498.1,364z"/>
    <path class="st6" d="M509.3,383.3l0.4,0.4c-0.9,1.3-1.9,2.2-2.8,2.8c-0.9,0.6-1.9,0.9-3,0.9c-1.3,0-2.3-0.4-3-1.3
        c-0.8-0.8-1.1-1.9-1.1-3.4s0.4-2.8,1.1-4.3c0.7-1.4,1.6-2.6,2.8-3.6c1.1-0.9,2.2-1.4,3.3-1.4c0.6,0,1.2,0.2,1.6,0.6
        c0.4,0.4,0.6,0.9,0.6,1.5c0,1.2-0.7,2.4-2,3.6c-1.3,1.2-3.1,2.2-5.4,3.1c0,0.1,0,0.2,0,0.4c0,1.1,0.3,1.9,0.9,2.6s1.4,1,2.3,1
        c0.8,0,1.5-0.2,2.1-0.7C507.8,385,508.5,384.2,509.3,383.3z M501.8,381.5c1.7-0.7,3-1.6,3.9-2.5c0.6-0.7,1.1-1.3,1.5-2
        c0.4-0.7,0.6-1.4,0.6-1.9c0-0.7-0.3-1.1-1-1.1c-1,0-2,0.8-3.1,2.4C502.6,377.9,502,379.6,501.8,381.5z"/>
    <path class="st6" d="M513.3,379.2h5.7l-0.2,1.1h-5.7L513.3,379.2z"/>
    <path class="st6" d="M546.9,375.7l-0.2,0.8h-5.8l0,0.1c-1,2.4-2.2,4.4-3.8,6.1c-1.5,1.7-3.2,3-5.2,3.8c-1.9,0.9-4,1.3-6.3,1.3
        c-1.6,0-2.9-0.2-4.1-0.6l0.8-1.8c1.8,0.9,3.6,1.4,5.3,1.4c2.7,0,5.1-1,7.2-3.1c0.9-0.8,1.6-1.8,2.3-2.8c0.6-1,1.3-2.5,1.9-4.2
        l0-0.1h-2.4l0.2-0.8h2.5l0-0.1l0.2-0.4c0.5-1.4,1-2.8,1.4-4.4c0.4-1.5,1-3.4,1.5-5.8c0.5-2,0.9-3.9,1.2-5.5l2.4-1.1
        c-0.2,0-0.3-0.1-0.3-0.1c-0.1,0-0.2,0-0.3,0c-3.9-0.4-7.3-0.7-10.1-0.7c-1.7,0-3.2,0.1-4.4,0.3c-1.2,0.2-2.1,0.6-2.8,1.1
        c-1.1,0.7-1.6,1.6-1.6,2.6c0,2.2,2.8,3.5,8.3,3.8l-1.6,1.7c-2.3-0.1-4-0.7-5.4-1.6c-1.4-0.9-2-2.1-2-3.6c0-1.9,1.2-3.5,3.6-4.6
        c2-1,5.1-1.5,9-1.5c1,0,2.3,0.1,4.1,0.2c1.4,0.1,3.2,0.3,5.2,0.5c1.8,0.2,3.3,0.4,4.5,0.6l0.4,0.1l-1.1,2.1l-0.4-0.1
        c-1.3-0.3-3-0.5-4.9-0.8l-0.2,0l0,0.1c-0.1,0.3-0.3,1.3-0.6,2.8c-0.3,1.1-0.6,2.3-0.9,3.7c-0.3,1-0.6,2-0.8,3
        c-0.4,1.3-0.7,2.3-1,3.1c-0.5,1.7-1.1,3.3-1.7,4.6H546.9z"/>
    <path class="st6" d="M557.4,374l2.2-0.9l-2.2,8.6c-0.2,0.9-0.4,1.7-0.4,2.2c0,0.5,0.1,0.9,0.3,1.2s0.5,0.5,0.8,0.5
        c0.4,0,1.2-0.6,2.3-1.7l0.3,0.3l-0.3,0.3c-0.8,0.9-1.4,1.6-1.9,2c-0.4,0.4-0.8,0.6-1.2,0.6c-0.5,0-0.9-0.3-1.3-0.8
        c-0.4-0.5-0.6-1.1-0.6-1.8c0-0.5,0.2-1.6,0.6-3.4l0.2-0.9c-0.6,1.3-1.4,2.6-2.3,3.9c-1.6,2.1-3.2,3.1-4.7,3.1
        c-0.9,0-1.6-0.3-2.1-1s-0.8-1.5-0.8-2.6c0-1.5,0.4-3,1.3-4.6c0.8-1.6,1.8-2.9,3.1-4c1.3-1,2.5-1.5,3.6-1.5c1.2,0,2.2,0.5,2.8,1.4
        L557.4,374z M556.7,376.9l0.2-0.8c-0.2-0.6-0.5-1.1-0.9-1.4c-0.4-0.3-1-0.5-1.5-0.5c-0.7,0-1.4,0.3-2.2,0.9s-1.5,1.5-2.1,2.6
        c-0.5,0.9-0.9,1.9-1.2,3c-0.3,1-0.5,1.9-0.5,2.7c0,0.8,0.2,1.4,0.5,1.9s0.7,0.7,1.3,0.7c0.7,0,1.5-0.3,2.3-1
        c0.8-0.7,1.6-1.6,2.3-2.9c0.5-0.8,0.9-1.5,1.1-2.2C556.1,379,556.4,378,556.7,376.9z"/>
    <path class="st6" d="M564.4,374.1l2.3-1l-2.1,7.7c-0.3,1.2-0.5,2.3-0.5,3c0,0.5,0.1,0.9,0.3,1.2s0.4,0.5,0.7,0.5
        c0.5,0,1.3-0.6,2.3-1.7l0.4,0.3l-0.2,0.3c-0.9,1-1.5,1.8-2,2.1c-0.4,0.4-0.8,0.6-1.2,0.6c-0.5,0-0.9-0.3-1.2-0.8
        c-0.3-0.5-0.5-1.1-0.5-1.8c0-0.5,0.1-1.2,0.3-2.2L564.4,374.1z M567.4,364c0.4,0,0.7,0.1,1,0.4s0.4,0.6,0.4,1c0,0.4-0.1,0.7-0.4,1
        s-0.6,0.4-1,0.4c-0.4,0-0.7-0.1-1-0.4s-0.4-0.6-0.4-1c0-0.4,0.1-0.7,0.4-1S567,364,567.4,364z"/>
    <path class="st6" d="M569.4,380.6l-0.4-0.4c1.4-1.6,2.3-3.2,2.7-4.5c-1.3-0.7-1.9-1.7-1.9-3c0-0.6,0.1-1.1,0.4-1.5
        s0.7-0.6,1.1-0.6c0.5,0,0.9,0.2,1.1,0.6c0.3,0.4,0.4,1,0.4,1.7c0,0.5-0.1,1-0.3,1.6c0.4,0.1,0.8,0.2,1.1,0.2c1,0,1.8-0.3,2.4-0.8
        h1.1l-0.2,0.3c-1.1,2-2,4.1-2.8,6.1s-1.1,3.5-1.1,4.5c0,0.4,0.1,0.7,0.3,0.9c0.2,0.3,0.4,0.4,0.7,0.4c0.6,0,1.7-0.7,3.1-2l0.4,0.4
        c-0.4,0.4-1.1,1-2,1.8c-0.8,0.7-1.6,1-2.3,1c-0.6,0-1.1-0.2-1.4-0.6s-0.5-1-0.5-1.7c0-1.2,0.5-2.7,1.4-4.5
        c0.3-0.6,0.7-1.4,1.3-2.3c0.3-0.5,1-1.6,1.9-3.1l0.2-0.3c-0.5,0.5-1,0.8-1.5,1c-0.5,0.2-1,0.3-1.6,0.3c-0.3,0-0.5,0-0.9-0.1
        C571.7,377.4,570.8,379,569.4,380.6z M572.2,374.3c0.1-0.4,0.1-0.7,0.1-1c0-0.5-0.1-1-0.3-1.3c-0.2-0.3-0.4-0.5-0.7-0.5
        c-0.1,0-0.3,0.1-0.4,0.2c-0.1,0.2-0.2,0.4-0.2,0.6C570.8,373,571.2,373.7,572.2,374.3z"/>
    <path class="st6" d="M589,383.3l0.4,0.4c-0.9,1.3-1.9,2.2-2.8,2.8c-0.9,0.6-1.9,0.9-3,0.9c-1.3,0-2.3-0.4-3-1.3
        c-0.8-0.8-1.1-1.9-1.1-3.4s0.4-2.8,1.1-4.3c0.7-1.4,1.6-2.6,2.8-3.6c1.1-0.9,2.2-1.4,3.3-1.4c0.6,0,1.2,0.2,1.6,0.6
        c0.4,0.4,0.6,0.9,0.6,1.5c0,1.2-0.7,2.4-2,3.6c-1.3,1.2-3.1,2.2-5.4,3.1c0,0.1,0,0.2,0,0.4c0,1.1,0.3,1.9,0.9,2.6s1.4,1,2.3,1
        c0.8,0,1.5-0.2,2.1-0.7C587.5,385,588.2,384.2,589,383.3z M581.5,381.5c1.7-0.7,3-1.6,3.9-2.5c0.6-0.7,1.1-1.3,1.5-2
        c0.4-0.7,0.6-1.4,0.6-1.9c0-0.7-0.3-1.1-1-1.1c-1,0-2,0.8-3.1,2.4C582.3,377.9,581.7,379.6,581.5,381.5z"/>
</g>
</svg>
